<?xml version="1.0" encoding="UTF-8" standalone="no"?>
<!-- Created with Inkscape (http://www.inkscape.org/) -->

<svg
   xmlns:dc="http://purl.org/dc/elements/1.1/"
   xmlns:cc="http://creativecommons.org/ns#"
   xmlns:rdf="http://www.w3.org/1999/02/22-rdf-syntax-ns#"
   xmlns:svg="http://www.w3.org/2000/svg"
   xmlns="http://www.w3.org/2000/svg"
   xmlns:sodipodi="http://sodipodi.sourceforge.net/DTD/sodipodi-0.dtd"
   xmlns:inkscape="http://www.inkscape.org/namespaces/inkscape"
   width="496.875"
   height="472.5625"
   id="svg2"
   version="1.1"
   inkscape:version="0.48.2 r9819"
   sodipodi:docname="Police 1.svg"
   inkscape:export-filename="C:\Users\KRISS80858\Moje PNG\Police 1.png"
   inkscape:export-xdpi="90"
   inkscape:export-ydpi="90">
  <defs
     id="defs4" />
  <sodipodi:namedview
     id="base"
     pagecolor="#ffffff"
     bordercolor="#666666"
     borderopacity="1.0"
     inkscape:pageopacity="0.0"
     inkscape:pageshadow="2"
     inkscape:zoom="0.96706785"
     inkscape:cx="248.4375"
     inkscape:cy="236.28125"
     inkscape:document-units="px"
     inkscape:current-layer="layer1"
     showgrid="false"
     inkscape:snap-object-midpoints="true"
     inkscape:object-nodes="true"
     inkscape:object-paths="false"
     inkscape:window-width="1366"
     inkscape:window-height="706"
     inkscape:window-x="-8"
     inkscape:window-y="-8"
     inkscape:window-maximized="1"
     showguides="true"
     inkscape:guide-bbox="true"
     inkscape:showpageshadow="false"
     fit-margin-top="0"
     fit-margin-left="0"
     fit-margin-right="0"
     fit-margin-bottom="0" />
  <metadata
     id="metadata7">
    <rdf:RDF>
      <cc:Work
         rdf:about="">
        <dc:format>image/svg+xml</dc:format>
        <dc:type
           rdf:resource="http://purl.org/dc/dcmitype/StillImage" />
        <dc:title></dc:title>
      </cc:Work>
    </rdf:RDF>
  </metadata>
  <g
     inkscape:label="Layer 1"
     inkscape:groupmode="layer"
     id="layer1"
     transform="translate(-3417.4688,-587.875)">
    <path
       style="color:#000000;fill:#c8ab37;fill-opacity:1;fill-rule:evenodd;stroke:none;stroke-width:1px;marker:none;visibility:visible;display:inline;overflow:visible;enable-background:accumulate"
       d="m 3631.375,587.875 31.6875,200.09375 c 0.9446,-0.0532 1.886,-0.0937 2.8437,-0.0937 0.9581,0 1.8992,0.0407 2.8438,0.0937 l 31.6875,-200.09375 -34.5313,30 -34.5312,-30 z m -1.9688,51.5625 -18.1562,30.1875 -32.4375,-13.75 68.9687,135.40625 c 1.7594,-0.68485 3.5569,-1.29638 5.4063,-1.78125 l -23.7813,-150.0625 z m 73,0 L 3678.625,789.5 c 1.8494,0.48487 3.6472,1.0964 5.4062,1.78125 l 68.9688,-135.375 -32.4062,13.75 -18.1563,-30.21875 -0.031,0 z m -182.6562,59.34375 3.0625,35.125 -34.3437,7.9375 135.375,69 c 1.0342,-1.60678 2.1374,-3.15145 3.3437,-4.625 L 3519.75,698.78125 z m 292.3125,0 -107.4375,107.4375 c 1.2063,1.47355 2.3093,3.01822 3.3438,4.625 l 135.4062,-69 -34.3438,-7.9375 3.0626,-35.09375 -0.031,-0.0312 z m -219.1875,6.75 -5.5625,24.125 -24.6875,-2.15625 71.6562,71.65625 c 1.4678,-1.20035 2.994,-2.31396 4.5938,-3.34375 l -46,-90.28125 z m 146.0938,0.0312 -46,90.28125 c 1.5936,1.0278 3.1313,2.11532 4.5937,3.3125 l 71.625,-71.625 -24.6563,2.15625 -5.5624,-24.125 z m -300.1563,22.21875 17.875,42.125 -39.2187,23.5625 200.0624,31.6875 c 0.4874,-1.8588 1.092,-3.66981 1.7813,-5.4375 l -180.5,-91.9375 z m 454.1875,0 -180.5,91.96875 c 0.6849,1.75922 1.2966,3.55688 1.7812,5.40625 l 200.0626,-31.6875 -39.1876,-23.5625 17.8438,-42.125 z m -227.0938,70.0938 c -22.0913,0 -40,17.90861 -40,40 0,22.09139 17.9087,40 40,40 22.0914,0 40,-17.90861 40,-40 0,-22.09139 -17.9086,-40 -40,-40 z m -200,13.375 0,0.0312 23.0938,26.59375 -23.0938,26.59375 0,0.0312 L 3616,840.71875 c -0.053,-0.94462 -0.094,-1.88583 -0.094,-2.84375 0,-0.95792 0.041,-1.89913 0.094,-2.84375 L 3465.9062,811.25 z m 400,0 -150.0937,23.78125 c 0.053,0.94462 0.094,1.88583 0.094,2.84375 0,0.95792 -0.041,1.89913 -0.094,2.84375 l 150.0937,23.78125 -23.0937,-26.59375 23.0937,-26.625 0,-0.0312 z m -248.375,39.34375 -100.0624,15.84375 21.2187,12.75 -9.6563,22.8125 90.2813,-46 c -0.6849,-1.75922 -1.2964,-3.55688 -1.7813,-5.40625 z m 96.75,0 c -0.4846,1.84937 -1.0963,3.64703 -1.7812,5.40625 l 90.25,46 -9.625,-22.75 21.2188,-12.78125 0,-0.0312 -100.0626,-15.84375 z m -90.4374,14.3125 -135.375,69 34.3124,7.9375 -3.0624,35.09375 0,0.0312 0.031,0 107.4375,-107.4375 c -1.2063,-1.47355 -2.3095,-3.01822 -3.3437,-4.625 z m 84.125,0 c -1.0345,1.60678 -2.1375,3.15145 -3.3438,4.625 l 107.4375,107.4375 0.031,-0.0312 -3.0626,-35.0625 34.3126,-7.9375 0.031,-0.0312 -135.4062,-69 z m -73.6876,11.6875 -143.25,143.25005 45.5626,-3.9688 10.3124,44.5625 91.9688,-180.5 c -1.5998,-1.02979 -3.126,-2.1434 -4.5938,-3.34375 z m 63.2813,0 c -1.4624,1.19718 -3.0002,2.2847 -4.5937,3.3125 l 91.9687,180.53125 10.2813,-44.5625 45.5937,3.9688 -143.25,-143.25005 z m -49.75,7.875 -69,135.37505 0.031,0 32.4062,-13.7188 18.1562,30.1875 23.7813,-150.0625 c -1.8399,-0.4824 -3.6243,-1.10087 -5.375,-1.78125 z m 36.2187,0 c -1.7591,0.68485 -3.5568,1.29638 -5.4062,1.78125 l 23.7812,150.0625 18.1563,-30.1875 32.4063,13.75 0.062,-0.031 -69,-135.37505 z m -21,3.3125 -15.8437,100.09375 18.7187,-16.21875 18.6876,16.21875 0.031,0 -15.8438,-100.09375 c -0.9546,0.0543 -1.9065,0.0937 -2.875,0.0937 -0.9681,0 -1.9202,-0.0394 -2.875,-0.0937 z"
       id="path4266"
       inkscape:connector-curvature="0" />
  </g>
</svg>
